<svg width="18" height="22" viewBox="0 0 18 22" fill="none" xmlns="http://www.w3.org/2000/svg">
<path d="M16.5 8H10.5V2H1.5V20H16.5V8ZM15.891 6.5L12 2.609V6.5H15.891ZM0.75 0.5H12L18 6.5V20.75C18 20.969 17.9298 21.1488 17.7892 21.2892C17.6488 21.4298 17.469 21.5 17.25 21.5H0.75C0.531 21.5 0.35125 21.4298 0.21075 21.2892C0.0702501 21.1488 0 20.969 0 20.75V1.25C0 1.031 0.0702501 0.85125 0.21075 0.71075C0.35125 0.57025 0.531 0.5 0.75 0.5ZM4.5 11H13.5V12.5H4.5V11ZM4.5 6.5H8.25V8H4.5V6.5ZM4.5 15.5H13.5V17H4.5V15.5Z" fill="#01803D"/>
</svg>
