<svg width="18" height="18" viewBox="0 0 18 18" fill="none" xmlns="http://www.w3.org/2000/svg">
<path d="M0.75 16.5002H17.25C17.469 16.5002 17.6488 16.5705 17.7892 16.711C17.9298 16.8515 18 17.0312 18 17.2502C18 17.4692 17.9298 17.649 17.7892 17.7895C17.6488 17.93 17.469 18.0002 17.25 18.0002H0.75C0.531 18.0002 0.35125 17.93 0.21075 17.7895C0.0702501 17.649 0 17.4692 0 17.2502C0 17.0312 0.0702501 16.8515 0.21075 16.711C0.35125 16.5705 0.531 16.5002 0.75 16.5002ZM9.75 10.5475L15.2812 5.01623L16.3597 6.07073L8.93025 13.5002L1.50075 6.07073L2.55525 5.01623L8.25075 10.7117V0.000976562H9.75075V10.5482L9.75 10.5475Z" fill="#C11E2F"/>
<path d="M0.75 16.5002H17.25C17.469 16.5002 17.6488 16.5705 17.7892 16.711C17.9298 16.8515 18 17.0312 18 17.2502C18 17.4692 17.9298 17.649 17.7892 17.7895C17.6488 17.93 17.469 18.0002 17.25 18.0002H0.75C0.531 18.0002 0.35125 17.93 0.21075 17.7895C0.0702501 17.649 0 17.4692 0 17.2502C0 17.0312 0.0702501 16.8515 0.21075 16.711C0.35125 16.5705 0.531 16.5002 0.75 16.5002ZM9.75 10.5475L15.2812 5.01623L16.3597 6.07073L8.93025 13.5002L1.50075 6.07073L2.55525 5.01623L8.25075 10.7117V0.000976562H9.75075V10.5482L9.75 10.5475Z" fill="black" fill-opacity="0.2"/>
</svg>
