<svg width="22" height="18" viewBox="0 0 22 18" fill="none" xmlns="http://www.w3.org/2000/svg">
<path d="M19.5785 7.5H4.67225L2.42225 16.5H17.3285L19.5785 7.5ZM18.5 6V4.5H10.3902L7.39025 1.5H1.99925V12L3.359 6.5625C3.406 6.3905 3.49575 6.25375 3.62825 6.15225C3.76075 6.05075 3.913 6 4.085 6H18.4992H18.5ZM17.9142 18H1.25C1.031 18 0.85125 17.9298 0.71075 17.7892C0.57025 17.6488 0.5 17.469 0.5 17.25V0.75C0.5 0.531 0.57025 0.35125 0.71075 0.21075C0.85125 0.0702501 1.031 0 1.25 0H8L11 3H19.25C19.469 3 19.6487 3.07025 19.7892 3.21075C19.9297 3.35125 20 3.531 20 3.75V6H20.5392C20.7737 6 20.9652 6.09775 21.1137 6.29325C21.2622 6.48875 21.313 6.7035 21.266 6.9375L18.641 17.4375C18.594 17.6095 18.5042 17.7463 18.3717 17.8478C18.2392 17.9493 18.087 18 17.915 18H17.9142Z" fill="#01803D"/>
</svg>
