<svg width="22" height="22" viewBox="0 0 22 22" fill="none" xmlns="http://www.w3.org/2000/svg">
<path d="M2 8V20H20V3.5H17V4.25C17 4.469 16.9297 4.64875 16.7892 4.78925C16.6487 4.92975 16.469 5 16.25 5C16.031 5 15.8513 4.92975 15.7108 4.78925C15.5703 4.64875 15.5 4.469 15.5 4.25V3.5H6.5V4.25C6.5 4.469 6.42975 4.64875 6.28925 4.78925C6.14875 4.92975 5.969 5 5.75 5C5.531 5 5.35125 4.92975 5.21075 4.78925C5.07025 4.64875 5 4.469 5 4.25V3.5H2V6.5H20V8H2ZM6.5 2H15.5V1.25C15.5 1.031 15.5703 0.85125 15.7108 0.71075C15.8513 0.57025 16.031 0.5 16.25 0.5C16.469 0.5 16.6487 0.57025 16.7892 0.71075C16.9297 0.85125 17 1.031 17 1.25V2H20.75C20.969 2 21.1487 2.07025 21.2892 2.21075C21.4297 2.35125 21.5 2.531 21.5 2.75V20.75C21.5 20.969 21.4297 21.1487 21.2892 21.2892C21.1487 21.4297 20.969 21.5 20.75 21.5H1.25C1.031 21.5 0.85125 21.4297 0.71075 21.2892C0.57025 21.1487 0.5 20.969 0.5 20.75V2.75C0.5 2.531 0.57025 2.35125 0.71075 2.21075C0.85125 2.07025 1.031 2 1.25 2H5V1.25C5 1.031 5.07025 0.85125 5.21075 0.71075C5.35125 0.57025 5.531 0.5 5.75 0.5C5.969 0.5 6.14875 0.57025 6.28925 0.71075C6.42975 0.85125 6.5 1.031 6.5 1.25V2V2ZM5.75 11H7.25C7.469 11 7.64875 11.0703 7.78925 11.2108C7.92975 11.3513 8 11.531 8 11.75C8 11.969 7.92975 12.1487 7.78925 12.2892C7.64875 12.4297 7.469 12.5 7.25 12.5H5.75C5.531 12.5 5.35125 12.4297 5.21075 12.2892C5.07025 12.1487 5 11.969 5 11.75C5 11.531 5.07025 11.3513 5.21075 11.2108C5.35125 11.0703 5.531 11 5.75 11V11ZM5.75 15.5H7.25C7.469 15.5 7.64875 15.5703 7.78925 15.7108C7.92975 15.8513 8 16.031 8 16.25C8 16.469 7.92975 16.6487 7.78925 16.7892C7.64875 16.9297 7.469 17 7.25 17H5.75C5.531 17 5.35125 16.9297 5.21075 16.7892C5.07025 16.6487 5 16.469 5 16.25C5 16.031 5.07025 15.8513 5.21075 15.7108C5.35125 15.5703 5.531 15.5 5.75 15.5ZM10.25 11H11.75C11.969 11 12.1487 11.0703 12.2892 11.2108C12.4297 11.3513 12.5 11.531 12.5 11.75C12.5 11.969 12.4297 12.1487 12.2892 12.2892C12.1487 12.4297 11.969 12.5 11.75 12.5H10.25C10.031 12.5 9.85125 12.4297 9.71075 12.2892C9.57025 12.1487 9.5 11.969 9.5 11.75C9.5 11.531 9.57025 11.3513 9.71075 11.2108C9.85125 11.0703 10.031 11 10.25 11V11ZM10.25 15.5H11.75C11.969 15.5 12.1487 15.5703 12.2892 15.7108C12.4297 15.8513 12.5 16.031 12.5 16.25C12.5 16.469 12.4297 16.6487 12.2892 16.7892C12.1487 16.9297 11.969 17 11.75 17H10.25C10.031 17 9.85125 16.9297 9.71075 16.7892C9.57025 16.6487 9.5 16.469 9.5 16.25C9.5 16.031 9.57025 15.8513 9.71075 15.7108C9.85125 15.5703 10.031 15.5 10.25 15.5ZM14.75 11H16.25C16.469 11 16.6487 11.0703 16.7892 11.2108C16.9297 11.3513 17 11.531 17 11.75C17 11.969 16.9297 12.1487 16.7892 12.2892C16.6487 12.4297 16.469 12.5 16.25 12.5H14.75C14.531 12.5 14.3513 12.4297 14.2108 12.2892C14.0703 12.1487 14 11.969 14 11.75C14 11.531 14.0703 11.3513 14.2108 11.2108C14.3513 11.0703 14.531 11 14.75 11V11ZM14.75 15.5H16.25C16.469 15.5 16.6487 15.5703 16.7892 15.7108C16.9297 15.8513 17 16.031 17 16.25C17 16.469 16.9297 16.6487 16.7892 16.7892C16.6487 16.9297 16.469 17 16.25 17H14.75C14.531 17 14.3513 16.9297 14.2108 16.7892C14.0703 16.6487 14 16.469 14 16.25C14 16.031 14.0703 15.8513 14.2108 15.7108C14.3513 15.5703 14.531 15.5 14.75 15.5Z" fill="#606266"/>
</svg>
