<svg width="56" height="56" viewBox="0 0 56 56" fill="none" xmlns="http://www.w3.org/2000/svg">
<rect width="56" height="56" rx="28" fill="#E6F2EC"/>
<path d="M19.75 19.75V36.25H36.25V19.75H19.75ZM19 18.25H37C37.219 18.25 37.3987 18.3202 37.5392 18.4607C37.6797 18.6012 37.75 18.781 37.75 19V37C37.75 37.219 37.6797 37.3987 37.5392 37.5392C37.3987 37.6797 37.219 37.75 37 37.75H19C18.781 37.75 18.6012 37.6797 18.4607 37.5392C18.3202 37.3987 18.25 37.219 18.25 37V19C18.25 18.781 18.3202 18.6012 18.4607 18.4607C18.6012 18.3202 18.781 18.25 19 18.25ZM25 22.75C26 22.75 26.5 23.25 26.5 24.25C26.5 25.25 26 25.75 25 25.75C24 25.75 23.5 25.25 23.5 24.25C23.5 23.25 24 22.75 25 22.75ZM20.3358 36.5545L19.1635 35.6403L24.226 29.0305C24.601 28.546 25.097 28.2648 25.714 28.1868C26.331 28.1088 26.8817 28.2495 27.3662 28.609L30.2958 30.976C30.4678 31.101 30.6513 31.1517 30.8463 31.1282C31.0413 31.1047 31.2092 31.015 31.3502 30.859L36.4127 24.5305L37.585 25.468L32.5225 31.7965C32.132 32.281 31.628 32.5545 31.0105 32.617C30.393 32.6795 29.8423 32.5233 29.3583 32.1483L26.452 29.8045C26.28 29.6795 26.0965 29.6287 25.9015 29.6522C25.7065 29.6757 25.5462 29.7735 25.4207 29.9455L20.3358 36.5545Z" fill="#01803D"/>
</svg>
