<svg width="14" height="14" viewBox="0 0 14 14" fill="none" xmlns="http://www.w3.org/2000/svg">
<path d="M11.5 5.5C11.4687 4.229 11.0285 3.16917 10.1795 2.3205C9.33049 1.47183 8.27066 1.03167 6.99999 1C5.72899 1.03133 4.66916 1.4715 3.82049 2.3205C2.97182 3.1695 2.53166 4.22933 2.49999 5.5C2.49999 6.427 2.87232 7.48683 3.61699 8.6795C4.36166 9.87217 5.48932 11.1925 6.99999 12.6405C8.51032 11.1925 9.63799 9.87217 10.383 8.6795C11.128 7.48683 11.5003 6.427 11.5 5.5ZM6.99999 14C3.33332 10.6667 1.49999 7.83333 1.49999 5.5C1.54165 3.93733 2.07816 2.6405 3.10949 1.6095C4.14082 0.5785 5.43766 0.042 6.99999 0C8.56266 0.0416667 9.85949 0.578167 10.8905 1.6095C11.9215 2.64083 12.458 3.93767 12.5 5.5C12.5 7.83333 10.6667 10.6667 6.99999 14ZM6.99999 6C7.28132 5.98967 7.51566 5.89067 7.70299 5.703C7.89032 5.51533 7.98416 5.281 7.98449 5C7.98482 4.719 7.89099 4.48467 7.70299 4.297C7.51499 4.10933 7.28066 4.0155 6.99999 4.0155C6.71932 4.0155 6.48499 4.10933 6.29699 4.297C6.10899 4.48467 6.01516 4.719 6.01549 5C6.01582 5.281 6.10966 5.51533 6.29699 5.703C6.48432 5.89067 6.71866 5.98967 6.99999 6ZM6.99999 7C6.43732 6.98967 5.96599 6.79433 5.58599 6.414C5.20599 6.03367 5.01066 5.56233 4.99999 5C5.01032 4.43733 5.20565 3.966 5.58599 3.586C5.96632 3.206 6.43766 3.01067 6.99999 3C7.56266 3.01033 8.03399 3.20567 8.41399 3.586C8.79399 3.96633 8.98932 4.43767 8.99999 5C8.98966 5.56267 8.79432 6.034 8.41399 6.414C8.03366 6.794 7.56232 6.98933 6.99999 7ZM12.4065 10L14.0005 14H9.50049V13H4.50049V14H0.000488281L1.59449 10H12.407H12.4065ZM11.328 10H2.67149L1.48399 13H12.5155L11.328 10Z" fill="white"/>
</svg>
