<svg width="57" height="34" viewBox="0 0 57 34" fill="none" xmlns="http://www.w3.org/2000/svg">
<rect width="57" height="34" rx="4" fill="#F5E8E9"/>
<path d="M17.162 22V11.64H18.604L21.964 18.108L25.324 11.64H26.766V22H25.702V13.18L22.468 19.34H21.46L18.226 13.152V22H17.162ZM32.8779 13.418H31.9679L33.1579 11.024H34.2639L32.8779 13.418ZM32.4299 22.14C31.8419 22.14 31.3239 22.0327 30.8759 21.818C30.4372 21.6033 30.0639 21.314 29.7559 20.95C29.4572 20.586 29.2332 20.1753 29.0839 19.718C28.9345 19.2513 28.8599 18.7753 28.8599 18.29C28.8599 17.7953 28.9345 17.3193 29.0839 16.862C29.2332 16.4047 29.4572 15.994 29.7559 15.63C30.0639 15.266 30.4372 14.9767 30.8759 14.762C31.3239 14.5473 31.8419 14.44 32.4299 14.44H34.2079C34.6372 14.44 34.8519 14.2207 34.8519 13.782V13.082H35.7899V13.782C35.7899 14.1833 35.6872 14.5053 35.4819 14.748C35.2859 14.9813 34.9919 15.112 34.5999 15.14C35.0665 15.504 35.4165 15.966 35.6499 16.526C35.8925 17.086 36.0139 17.674 36.0139 18.29C36.0139 18.7753 35.9345 19.2513 35.7759 19.718C35.6265 20.1753 35.4025 20.586 35.1039 20.95C34.8052 21.314 34.4319 21.6033 33.9839 21.818C33.5359 22.0327 33.0179 22.14 32.4299 22.14ZM32.4299 21.202C32.9805 21.202 33.4425 21.062 33.8159 20.782C34.1892 20.502 34.4692 20.1427 34.6559 19.704C34.8519 19.256 34.9499 18.7847 34.9499 18.29C34.9499 17.7953 34.8519 17.3287 34.6559 16.89C34.4692 16.442 34.1892 16.078 33.8159 15.798C33.4425 15.518 32.9805 15.378 32.4299 15.378C31.8792 15.378 31.4172 15.518 31.0439 15.798C30.6705 16.078 30.3905 16.442 30.2039 16.89C30.0172 17.3287 29.9239 17.7953 29.9239 18.29C29.9239 18.7847 30.0172 19.256 30.2039 19.704C30.3905 20.1427 30.6705 20.502 31.0439 20.782C31.4172 21.062 31.8792 21.202 32.4299 21.202ZM38.6813 13.152C38.4666 13.152 38.2893 13.0773 38.1493 12.928C38.0093 12.7787 37.9393 12.606 37.9393 12.41C37.9393 12.2047 38.0093 12.032 38.1493 11.892C38.2893 11.7427 38.4666 11.668 38.6813 11.668C38.8866 11.668 39.0593 11.7427 39.1993 11.892C39.3486 12.032 39.4233 12.2047 39.4233 12.41C39.4233 12.6153 39.3486 12.7927 39.1993 12.942C39.0593 13.082 38.8866 13.152 38.6813 13.152ZM38.1633 22V14.58H39.2133V22H38.1633Z" fill="#C11E2F"/>
<path d="M17.162 22V11.64H18.604L21.964 18.108L25.324 11.64H26.766V22H25.702V13.18L22.468 19.34H21.46L18.226 13.152V22H17.162ZM32.8779 13.418H31.9679L33.1579 11.024H34.2639L32.8779 13.418ZM32.4299 22.14C31.8419 22.14 31.3239 22.0327 30.8759 21.818C30.4372 21.6033 30.0639 21.314 29.7559 20.95C29.4572 20.586 29.2332 20.1753 29.0839 19.718C28.9345 19.2513 28.8599 18.7753 28.8599 18.29C28.8599 17.7953 28.9345 17.3193 29.0839 16.862C29.2332 16.4047 29.4572 15.994 29.7559 15.63C30.0639 15.266 30.4372 14.9767 30.8759 14.762C31.3239 14.5473 31.8419 14.44 32.4299 14.44H34.2079C34.6372 14.44 34.8519 14.2207 34.8519 13.782V13.082H35.7899V13.782C35.7899 14.1833 35.6872 14.5053 35.4819 14.748C35.2859 14.9813 34.9919 15.112 34.5999 15.14C35.0665 15.504 35.4165 15.966 35.6499 16.526C35.8925 17.086 36.0139 17.674 36.0139 18.29C36.0139 18.7753 35.9345 19.2513 35.7759 19.718C35.6265 20.1753 35.4025 20.586 35.1039 20.95C34.8052 21.314 34.4319 21.6033 33.9839 21.818C33.5359 22.0327 33.0179 22.14 32.4299 22.14ZM32.4299 21.202C32.9805 21.202 33.4425 21.062 33.8159 20.782C34.1892 20.502 34.4692 20.1427 34.6559 19.704C34.8519 19.256 34.9499 18.7847 34.9499 18.29C34.9499 17.7953 34.8519 17.3287 34.6559 16.89C34.4692 16.442 34.1892 16.078 33.8159 15.798C33.4425 15.518 32.9805 15.378 32.4299 15.378C31.8792 15.378 31.4172 15.518 31.0439 15.798C30.6705 16.078 30.3905 16.442 30.2039 16.89C30.0172 17.3287 29.9239 17.7953 29.9239 18.29C29.9239 18.7847 30.0172 19.256 30.2039 19.704C30.3905 20.1427 30.6705 20.502 31.0439 20.782C31.4172 21.062 31.8792 21.202 32.4299 21.202ZM38.6813 13.152C38.4666 13.152 38.2893 13.0773 38.1493 12.928C38.0093 12.7787 37.9393 12.606 37.9393 12.41C37.9393 12.2047 38.0093 12.032 38.1493 11.892C38.2893 11.7427 38.4666 11.668 38.6813 11.668C38.8866 11.668 39.0593 11.7427 39.1993 11.892C39.3486 12.032 39.4233 12.2047 39.4233 12.41C39.4233 12.6153 39.3486 12.7927 39.1993 12.942C39.0593 13.082 38.8866 13.152 38.6813 13.152ZM38.1633 22V14.58H39.2133V22H38.1633Z" fill="black" fill-opacity="0.2"/>
</svg>
