<svg width="57" height="38" viewBox="0 0 57 38" fill="none" xmlns="http://www.w3.org/2000/svg">
<rect width="57" height="38" rx="8" fill="#FFFBD8"/>
<path d="M17.162 24V13.64H18.604L21.964 20.108L25.324 13.64H26.766V24H25.702V15.18L22.468 21.34H21.46L18.226 15.152V24H17.162ZM32.8779 15.418H31.9679L33.1579 13.024H34.2639L32.8779 15.418ZM32.4299 24.14C31.8419 24.14 31.3239 24.0327 30.8759 23.818C30.4372 23.6033 30.0639 23.314 29.7559 22.95C29.4572 22.586 29.2332 22.1753 29.0839 21.718C28.9345 21.2513 28.8599 20.7753 28.8599 20.29C28.8599 19.7953 28.9345 19.3193 29.0839 18.862C29.2332 18.4047 29.4572 17.994 29.7559 17.63C30.0639 17.266 30.4372 16.9767 30.8759 16.762C31.3239 16.5473 31.8419 16.44 32.4299 16.44H34.2079C34.6372 16.44 34.8519 16.2207 34.8519 15.782V15.082H35.7899V15.782C35.7899 16.1833 35.6872 16.5053 35.4819 16.748C35.2859 16.9813 34.9919 17.112 34.5999 17.14C35.0665 17.504 35.4165 17.966 35.6499 18.526C35.8925 19.086 36.0139 19.674 36.0139 20.29C36.0139 20.7753 35.9345 21.2513 35.7759 21.718C35.6265 22.1753 35.4025 22.586 35.1039 22.95C34.8052 23.314 34.4319 23.6033 33.9839 23.818C33.5359 24.0327 33.0179 24.14 32.4299 24.14ZM32.4299 23.202C32.9805 23.202 33.4425 23.062 33.8159 22.782C34.1892 22.502 34.4692 22.1427 34.6559 21.704C34.8519 21.256 34.9499 20.7847 34.9499 20.29C34.9499 19.7953 34.8519 19.3287 34.6559 18.89C34.4692 18.442 34.1892 18.078 33.8159 17.798C33.4425 17.518 32.9805 17.378 32.4299 17.378C31.8792 17.378 31.4172 17.518 31.0439 17.798C30.6705 18.078 30.3905 18.442 30.2039 18.89C30.0172 19.3287 29.9239 19.7953 29.9239 20.29C29.9239 20.7847 30.0172 21.256 30.2039 21.704C30.3905 22.1427 30.6705 22.502 31.0439 22.782C31.4172 23.062 31.8792 23.202 32.4299 23.202ZM38.6813 15.152C38.4666 15.152 38.2893 15.0773 38.1493 14.928C38.0093 14.7787 37.9393 14.606 37.9393 14.41C37.9393 14.2047 38.0093 14.032 38.1493 13.892C38.2893 13.7427 38.4666 13.668 38.6813 13.668C38.8866 13.668 39.0593 13.7427 39.1993 13.892C39.3486 14.032 39.4233 14.2047 39.4233 14.41C39.4233 14.6153 39.3486 14.7927 39.1993 14.942C39.0593 15.082 38.8866 15.152 38.6813 15.152ZM38.1633 24V16.58H39.2133V24H38.1633Z" fill="#F0BE00"/>
</svg>
