<svg width="56" height="56" viewBox="0 0 56 56" fill="none" xmlns="http://www.w3.org/2000/svg">
<rect width="56" height="56" rx="28" fill="#E6F2EC"/>
<path d="M20.5 19V37H35.5V19H20.5ZM19.75 17.5H36.25C36.469 17.5 36.6488 17.5702 36.7892 17.7107C36.9298 17.8512 37 18.031 37 18.25V37.75C37 37.969 36.9298 38.1488 36.7892 38.2892C36.6488 38.4298 36.469 38.5 36.25 38.5H19.75C19.531 38.5 19.3513 38.4298 19.2108 38.2892C19.0703 38.1488 19 37.969 19 37.75V18.25C19 18.031 19.0703 17.8512 19.2108 17.7107C19.3513 17.5702 19.531 17.5 19.75 17.5ZM31.75 19H33.25V37H31.75V19ZM18.25 20.5H21.25C21.75 20.5 22 20.75 22 21.25C22 21.75 21.75 22 21.25 22H18.25C17.75 22 17.5 21.75 17.5 21.25C17.5 20.75 17.75 20.5 18.25 20.5ZM18.25 25H21.25C21.75 25 22 25.25 22 25.75C22 26.25 21.75 26.5 21.25 26.5H18.25C17.75 26.5 17.5 26.25 17.5 25.75C17.5 25.25 17.75 25 18.25 25ZM18.25 29.5H21.25C21.75 29.5 22 29.75 22 30.25C22 30.75 21.75 31 21.25 31H18.25C17.75 31 17.5 30.75 17.5 30.25C17.5 29.75 17.75 29.5 18.25 29.5ZM18.25 34H21.25C21.75 34 22 34.25 22 34.75C22 35.25 21.75 35.5 21.25 35.5H18.25C17.75 35.5 17.5 35.25 17.5 34.75C17.5 34.25 17.75 34 18.25 34Z" fill="#01803D"/>
</svg>
