<svg width="22" height="22" viewBox="0 0 22 22" fill="none" xmlns="http://www.w3.org/2000/svg">
<path d="M0.85171 9.125L12.875 21.1483C12.9845 21.2577 13.1135 21.3243 13.262 21.3478C13.4105 21.3713 13.555 21.3517 13.6955 21.2892L19.625 18.758C19.875 18.6485 20.0235 18.465 20.0705 18.2075C20.1175 17.95 20.0472 17.7272 19.8597 17.5392L16.274 13.9295C16.149 13.82 16.0082 13.7498 15.8517 13.7188C15.6952 13.6877 15.5467 13.7113 15.4062 13.7892L13.7652 14.6097L7.39021 8.23475L8.21071 6.59375C8.28871 6.45325 8.31221 6.30475 8.28121 6.14825C8.25021 5.99175 8.17996 5.851 8.07046 5.726L4.46071 2.14025C4.27321 1.95275 4.05046 1.8825 3.79246 1.9295C3.53446 1.9765 3.35096 2.125 3.24196 2.375L0.71071 8.3045C0.64821 8.445 0.62871 8.5895 0.65221 8.738C0.67571 8.8865 0.74221 9.0155 0.85171 9.125ZM2.28121 8.42225L4.17946 3.96875L6.64021 6.40625L5.56171 8.53925L13.46 16.4375L15.593 15.359L18.0305 17.8197L13.577 19.718L2.28121 8.42225ZM11 6.5V5C12.703 5.047 14.117 5.633 15.242 6.758C16.367 7.883 16.953 9.297 17 11H15.5C15.4685 9.7185 15.031 8.656 14.1875 7.8125C13.344 6.969 12.2815 6.5315 11 6.5ZM11 2V0.5C13.969 0.578 16.4417 1.60525 18.4182 3.58175C20.3947 5.55825 21.422 8.031 21.5 11H20C19.9375 8.453 19.0585 6.332 17.363 4.637C15.6675 2.942 13.5465 2.063 11 2Z" fill="#303133"/>
</svg>
